<svg width="181" height="35" viewBox="0 0 181 35" fill="none" xmlns="http://www.w3.org/2000/svg">
<path d="M54.8938 17.6693C55.7173 16.9323 56.2957 15.9659 56.5527 14.8975C56.8097 13.829 56.7332 12.7086 56.3334 11.684C55.9336 10.6593 55.2292 9.77849 54.313 9.1575C53.3968 8.5365 52.3118 8.2045 51.201 8.20524V8.21371H41.6371V27.1419L51.201 27.1321C52.3099 27.1309 53.3926 26.7982 54.3068 26.1776C55.221 25.557 55.9239 24.6776 56.3234 23.6548C56.7228 22.632 56.8 21.5137 56.5449 20.4468C56.2898 19.3798 55.7142 18.4141 54.8938 17.6764M51.1996 24.3165L44.4906 24.3236V19.0877H51.2082V19.0806C51.8988 19.0965 52.5558 19.3789 53.0387 19.8675C53.5215 20.3561 53.7918 21.012 53.7918 21.6951C53.7918 22.3781 53.5215 23.0341 53.0387 23.5226C52.5558 24.0112 51.8988 24.2936 51.2082 24.3095M51.2082 16.2651H44.4992V11.0433H51.2167V11.0349C51.9182 11.0349 52.591 11.3104 53.0871 11.8008C53.5831 12.2913 53.8618 12.9564 53.8618 13.65C53.8618 14.3436 53.5831 15.0087 53.0871 15.4992C52.591 15.9896 51.9182 16.2651 51.2167 16.2651" fill="#2D2F31"/>
<path d="M17.7003 0C14.1995 0 10.7774 1.02636 7.86656 2.94928C4.95575 4.87221 2.68706 7.60533 1.34736 10.803C0.00766925 14.0007 -0.342856 17.5194 0.340115 20.9141C1.02309 24.3087 2.70888 27.4269 5.18431 29.8744C7.65974 32.3218 10.8136 33.9885 14.2472 34.6637C17.6807 35.339 21.2396 34.9924 24.4739 33.6679C27.7083 32.3434 30.4727 30.1003 32.4176 27.2225C34.3625 24.3446 35.4006 20.9612 35.4006 17.5C35.395 12.8604 33.5283 8.41249 30.2101 5.13182C26.8919 1.85115 22.393 0.00560222 17.7003 0ZM31.832 21.9794C31.5992 22.6969 31.31 23.3953 30.967 24.0681L22.5037 20.6571L28.9629 27.0446C28.4665 27.6164 27.9268 28.15 27.3484 28.6407L20.8507 22.2165L24.2894 30.6462C23.607 30.9822 22.8992 31.2653 22.1725 31.4929L18.8423 23.3173V32.1351C18.4616 32.1633 18.081 32.1774 17.7003 32.1774C17.3197 32.1774 16.939 32.1633 16.5584 32.1351V20.2252L8.04651 28.6407C7.46777 28.1504 6.92803 27.6167 6.43207 27.0446L14.9439 18.629H2.89772C2.86917 18.2527 2.8549 17.8763 2.8549 17.5C2.8549 17.1237 2.86917 16.7473 2.89772 16.371H14.9439L6.43207 7.95544C6.92839 7.38358 7.4681 6.84997 8.04651 6.35927L16.5584 14.7748V2.86633C16.939 2.83716 17.3197 2.82258 17.7003 2.82258C18.081 2.82258 18.4616 2.83716 18.8423 2.86633V11.6897L22.1854 3.50423C22.9122 3.73153 23.62 4.01465 24.3023 4.35101L20.8607 12.7778L27.3541 6.35927C27.9322 6.85035 28.4719 7.38392 28.9686 7.95544L22.4965 14.3542L30.9756 10.946C31.3151 11.6203 31.6014 12.3196 31.832 13.0375L23.5443 16.371H32.5015C32.531 16.7473 32.5457 17.1237 32.5457 17.5C32.5457 17.8763 32.531 18.2527 32.5015 18.629H23.5272L31.832 21.9794Z" fill="#2D2F31"/>
<path d="M127.036 24.2817L110.087 24.3343L110.096 27.1569L127.045 27.1043L127.036 24.2817Z" fill="#2D2F31"/>
<path d="M88.296 27.101L85.4411 27.0925L85.4982 10.9968L78.7978 11.0081L78.7921 8.18548L88.3631 8.16855L88.296 27.101Z" fill="#2D2F31"/>
<path d="M80.1525 8.18548H77.2976V21.7607H80.1525V8.18548Z" fill="#2D2F31"/>
<path d="M74.6554 27.1716V24.349C75.3566 24.3482 76.029 24.0725 76.5249 23.5822C77.0208 23.0919 77.2997 22.4272 77.3004 21.7339H80.1553C80.1534 23.1755 79.5734 24.5575 78.5423 25.5768C77.5113 26.5962 76.1135 27.1697 74.6554 27.1716Z" fill="#2D2F31"/>
<path d="M159.097 27.101L156.242 27.0925L156.299 10.9968L149.599 11.0081L149.593 8.18548L159.166 8.16855L159.097 27.101Z" fill="#2D2F31"/>
<path d="M150.954 8.18548H148.099V21.7607H150.954V8.18548Z" fill="#2D2F31"/>
<path d="M145.457 27.1716V24.349C146.158 24.3482 146.83 24.0725 147.326 23.5822C147.822 23.0919 148.101 22.4272 148.102 21.7339H150.957C150.955 23.1755 150.375 24.5575 149.344 25.5768C148.313 26.5962 146.915 27.1697 145.457 27.1716Z" fill="#2D2F31"/>
<path d="M124.839 27.101L121.984 27.0925L122.041 10.9968L115.198 11.0081L115.192 8.18548L124.906 8.16855L124.839 27.101Z" fill="#2D2F31"/>
<path d="M116.695 8.18548H113.84V21.7339H116.695V8.18548Z" fill="#2D2F31"/>
<path d="M111.184 27.125V24.3024C111.885 24.3017 112.557 24.0259 113.053 23.5356C113.549 23.0454 113.828 22.3806 113.829 21.6873H116.684C116.682 23.129 116.102 24.5112 115.071 25.5307C114.04 26.5501 112.642 27.1235 111.184 27.125Z" fill="#2D2F31"/>
<path d="M100.635 27.0968C98.7433 27.0968 96.8942 26.5422 95.3214 25.5032C93.7487 24.4642 92.5229 22.9874 91.799 21.2596C91.0751 19.5318 90.8857 17.6306 91.2548 15.7964C91.6238 13.9622 92.5346 12.2774 93.8722 10.955C95.2097 9.63258 96.9138 8.73202 98.769 8.36717C100.624 8.00232 102.547 8.18958 104.295 8.90525C106.042 9.62092 107.536 10.8329 108.587 12.3879C109.638 13.9428 110.199 15.771 110.199 17.6411C110.196 20.148 109.187 22.5513 107.394 24.324C105.601 26.0966 103.17 27.0938 100.635 27.0968ZM100.635 11.0081C99.3079 11.0081 98.0108 11.3971 96.9075 12.1259C95.8043 12.8548 94.9443 13.8907 94.4366 15.1028C93.9288 16.3148 93.7959 17.6485 94.0548 18.9352C94.3136 20.2219 94.9526 21.4038 95.8909 22.3314C96.8292 23.2591 98.0246 23.8908 99.326 24.1467C100.627 24.4027 101.976 24.2713 103.202 23.7693C104.428 23.2672 105.476 22.4171 106.213 21.3263C106.95 20.2355 107.344 18.953 107.344 17.6411C107.344 15.8819 106.637 14.1948 105.379 12.9508C104.121 11.7069 102.414 11.0081 100.635 11.0081Z" fill="#2D2F31"/>
<path d="M171.436 27.0968C169.545 27.0968 167.695 26.5422 166.123 25.5032C164.55 24.4642 163.324 22.9874 162.6 21.2596C161.876 19.5318 161.687 17.6306 162.056 15.7964C162.425 13.9622 163.336 12.2774 164.673 10.955C166.011 9.63258 167.715 8.73202 169.57 8.36717C171.426 8.00232 173.348 8.18958 175.096 8.90525C176.844 9.62092 178.337 10.8329 179.388 12.3879C180.439 13.9428 181 15.771 181 17.6411C180.997 20.148 179.988 22.5513 178.195 24.324C176.403 26.0966 173.972 27.0938 171.436 27.0968ZM171.436 11.0081C170.109 11.0081 168.812 11.3971 167.709 12.1259C166.606 12.8548 165.746 13.8907 165.238 15.1028C164.73 16.3148 164.597 17.6485 164.856 18.9352C165.115 20.2219 165.754 21.4038 166.692 22.3314C167.63 23.2591 168.826 23.8908 170.127 24.1467C171.429 24.4027 172.778 24.2713 174.004 23.7693C175.229 23.2672 176.277 22.4171 177.014 21.3263C177.752 20.2355 178.145 18.953 178.145 17.6411C178.145 15.8819 177.438 14.1948 176.18 12.9508C174.922 11.7069 173.215 11.0081 171.436 11.0081Z" fill="#2D2F31"/>
<path d="M62.1909 24.3165V19.0877H69.0512V19.0806H70.944V16.2581H62.1923V11.0363H71.7648V11.0278H71.8048V8.20524H71.7605L68.9056 8.21371H59.3417V27.1419L71.8005 27.1321V24.3095L62.1909 24.3165Z" fill="#2D2F31"/>
<path d="M132.992 24.3165V19.0877H139.852V19.0806H141.745V16.2581H132.994V11.0363H142.566V11.0278H142.606V8.20524H142.562L139.707 8.21371H130.143V27.1419L142.602 27.1321V24.3095L132.992 24.3165Z" fill="#2D2F31"/>
</svg>
