<svg width="253" height="49" viewBox="0 0 253 49" fill="none" xmlns="http://www.w3.org/2000/svg">
<path d="M76.73 24.7371C77.8811 23.7052 78.6896 22.3523 79.0488 20.8564C79.408 19.3606 79.3011 17.7921 78.7423 16.3576C78.1834 14.9231 77.1988 13.6899 75.9182 12.8205C74.6375 11.9511 73.121 11.4863 71.5683 11.4873V11.4992H58.2V37.9987L71.5683 37.9849C73.1183 37.9833 74.6316 37.5175 75.9095 36.6487C77.1873 35.7799 78.1699 34.5486 78.7283 33.1168C79.2866 31.6849 79.3945 30.1192 79.0379 28.6255C78.6813 27.1317 77.8768 25.7797 76.73 24.747M71.5663 34.0431L62.1885 34.053V26.7228H71.5782V26.7129C72.5437 26.7351 73.462 27.1305 74.1369 27.8145C74.8118 28.4985 75.1896 29.4168 75.1896 30.3731C75.1896 31.3294 74.8118 32.2477 74.1369 32.9317C73.462 33.6157 72.5437 34.011 71.5782 34.0333M71.5782 22.7712H62.2005V15.4607H71.5902V15.4488C72.5708 15.4488 73.5112 15.8346 74.2046 16.5212C74.8979 17.2078 75.2875 18.139 75.2875 19.11C75.2875 20.081 74.8979 21.0122 74.2046 21.6988C73.5112 22.3854 72.5708 22.7712 71.5902 22.7712" fill="white"/>
<path d="M24.7413 0C19.848 0 15.0645 1.4369 10.9958 4.12899C6.9271 6.82109 3.75594 10.6475 1.88333 15.1243C0.01072 19.601 -0.479241 24.5272 0.475409 29.2797C1.43006 34.0322 3.78644 38.3977 7.24658 41.8241C10.7067 45.2505 15.1152 47.5839 19.9145 48.5292C24.7139 49.4746 29.6885 48.9894 34.2094 47.135C38.7303 45.2807 42.5944 42.1405 45.313 38.1115C48.0316 34.0825 49.4827 29.3456 49.4827 24.5C49.4747 18.0046 46.8655 11.7775 42.2273 7.18454C37.5892 2.5916 31.3007 0.00784311 24.7413 0ZM44.4945 30.7712C44.1691 31.7757 43.7648 32.7534 43.2854 33.6954L31.4554 28.9199L40.484 37.8624C39.7903 38.663 39.0359 39.41 38.2274 40.097L29.1449 31.1031L33.9515 42.9046C32.9976 43.375 32.0083 43.7714 30.9925 44.0901L26.3376 32.6443V44.9891C25.8055 45.0286 25.2734 45.0484 24.7413 45.0484C24.2093 45.0484 23.6772 45.0286 23.1451 44.9891V28.3153L11.2473 40.097C10.4384 39.4105 9.68393 38.6634 8.99069 37.8624L20.8885 26.0806H4.05041C4.0105 25.5538 3.99055 25.0269 3.99055 24.5C3.99055 23.9731 4.0105 23.4462 4.05041 22.9193H20.8885L8.99069 11.1376C9.68444 10.337 10.4388 9.58996 11.2473 8.90298L23.1451 20.6847V4.01286C23.6772 3.97203 24.2093 3.95161 24.7413 3.95161C25.2734 3.95161 25.8055 3.97203 26.3376 4.01286V16.3656L31.0105 4.90593C32.0265 5.22414 33.0158 5.62051 33.9695 6.09141L29.1589 17.8889L38.2353 8.90298C39.0433 9.59049 39.7977 10.3375 40.492 11.1376L31.4454 20.0959L43.2973 15.3244C43.7719 16.2684 44.1722 17.2474 44.4945 18.2525L32.91 22.9193H45.4303C45.4715 23.4462 45.4921 23.9731 45.4921 24.5C45.4921 25.0269 45.4715 25.5538 45.4303 26.0806H32.886L44.4945 30.7712Z" fill="white"/>
<path d="M177.57 33.9944L153.879 34.0681L153.891 38.0197L177.583 37.946L177.57 33.9944Z" fill="white"/>
<path d="M123.419 37.9414L119.429 37.9295L119.509 15.3955L110.143 15.4113L110.135 11.4597L123.513 11.436L123.419 37.9414Z" fill="white"/>
<path d="M112.036 11.4597H108.046V30.465H112.036V11.4597Z" fill="white"/>
<path d="M104.353 38.0402V34.0886C105.333 34.0875 106.273 33.7015 106.966 33.0151C107.659 32.3287 108.049 31.3981 108.05 30.4274H112.04C112.038 32.4456 111.227 34.3805 109.786 35.8076C108.345 37.2347 106.391 38.0376 104.353 38.0402Z" fill="white"/>
<path d="M222.385 37.9414L218.394 37.9295L218.474 15.3955L209.108 15.4113L209.1 11.4597L222.48 11.436L222.385 37.9414Z" fill="white"/>
<path d="M211.002 11.4597H207.011V30.465H211.002V11.4597Z" fill="white"/>
<path d="M203.318 38.0402V34.0886C204.298 34.0875 205.238 33.7015 205.931 33.0151C206.624 32.3287 207.014 31.3981 207.015 30.4274H211.006C211.003 32.4456 210.192 34.3805 208.751 35.8076C207.31 37.2347 205.356 38.0376 203.318 38.0402Z" fill="white"/>
<path d="M174.498 37.9414L170.508 37.9295L170.587 15.3955L161.022 15.4113L161.014 11.4597L174.592 11.436L174.498 37.9414Z" fill="white"/>
<path d="M163.115 11.4597H159.125V30.4274H163.115V11.4597Z" fill="white"/>
<path d="M155.411 37.975V34.0234C156.392 34.0223 157.331 33.6363 158.025 32.9499C158.718 32.2635 159.108 31.3329 159.109 30.3622H163.099C163.097 32.3806 162.286 34.3157 160.845 35.7429C159.404 37.1702 157.45 37.9729 155.411 37.975Z" fill="white"/>
<path d="M140.666 37.9355C138.022 37.9355 135.438 37.1591 133.239 35.7045C131.041 34.2499 129.328 32.1824 128.316 29.7635C127.304 27.3446 127.039 24.6829 127.555 22.115C128.071 19.5471 129.344 17.1883 131.214 15.337C133.083 13.4856 135.465 12.2248 138.058 11.714C140.652 11.2032 143.339 11.4654 145.782 12.4673C148.225 13.4693 150.313 15.166 151.782 17.343C153.251 19.52 154.035 22.0794 154.035 24.6976C154.03 28.2072 152.621 31.5719 150.115 34.0536C147.608 36.5352 144.211 37.9313 140.666 37.9355ZM140.666 15.4113C138.812 15.4113 136.999 15.9559 135.456 16.9763C133.914 17.9967 132.712 19.447 132.002 21.1439C131.293 22.8407 131.107 24.7079 131.469 26.5092C131.831 28.3106 132.724 29.9653 134.035 31.264C135.347 32.5627 137.018 33.4471 138.837 33.8054C140.656 34.1637 142.542 33.9798 144.255 33.277C145.969 32.5741 147.433 31.3839 148.464 29.8568C149.494 28.3296 150.044 26.5342 150.044 24.6976C150.044 22.2347 149.056 19.8727 147.297 18.1312C145.539 16.3897 143.154 15.4113 140.666 15.4113Z" fill="white"/>
<path d="M239.632 37.9355C236.988 37.9355 234.403 37.1591 232.205 35.7045C230.006 34.2499 228.293 32.1824 227.281 29.7635C226.269 27.3446 226.004 24.6829 226.52 22.115C227.036 19.5471 228.309 17.1883 230.179 15.337C232.048 13.4856 234.43 12.2248 237.024 11.714C239.617 11.2032 242.305 11.4654 244.748 12.4673C247.19 13.4693 249.278 15.166 250.747 17.343C252.216 19.52 253 22.0794 253 24.6976C252.996 28.2072 251.586 31.5719 249.08 34.0536C246.574 36.5352 243.176 37.9313 239.632 37.9355ZM239.632 15.4113C237.777 15.4113 235.964 15.9559 234.422 16.9763C232.88 17.9967 231.678 19.447 230.968 21.1439C230.258 22.8407 230.072 24.7079 230.434 26.5092C230.796 28.3106 231.689 29.9653 233.001 31.264C234.312 32.5627 235.983 33.4471 237.802 33.8054C239.621 34.1637 241.507 33.9798 243.22 33.277C244.934 32.5741 246.399 31.3839 247.429 29.8568C248.459 28.3296 249.009 26.5342 249.009 24.6976C249.009 22.2347 248.021 19.8727 246.263 18.1312C244.504 16.3897 242.119 15.4113 239.632 15.4113Z" fill="white"/>
<path d="M86.9298 34.0431V26.7228H96.5191V26.7129H99.1648V22.7613H86.9318V15.4508H100.312V15.4389H100.368V11.4873H100.306L96.3156 11.4992H82.9473V37.9987L100.362 37.9849V34.0333L86.9298 34.0431Z" fill="white"/>
<path d="M185.895 34.0431V26.7228H195.484V26.7129H198.13V22.7613H185.897V15.4508H199.277V15.4389H199.333V11.4873H199.271L195.281 11.4992H181.913V37.9987L199.327 37.9849V34.0333L185.895 34.0431Z" fill="white"/>
</svg>
